PathFileType	4	(X/Y/Z)	 s08c0203.trc
DataRate	CameraRate	NumFrames	NumMarkers	Units	OrigDataRate	OrigDataStartFrame	OrigNumFrames
200	200	4	50	mm	200	1501	2000
Frame#	Time	racr			lacr			c7			jug			rlel			rdr			llel			ldr			s2			lic			ric			lasi			rasi			rpsi			lpsi			rgt			lgt			rth1			rth2			rth3			rth4			rlfc			rmfc			rsh1			rsh2			rsh3			rsh4			rlmal			rmmal			rcal			rtoe			rmt5			lth1			lth2			lth4			lth3			llfc			lmfc			llmal			lmmal			lcal			lmt5			lsh1			lsh2			lsh3			lsh4			ltoe			SBIKE			LBIKE			RBIKE			
		X1	Y1	Z1	X2	Y2	Z2	X3	Y3	Z3	X4	Y4	Z4	X5	Y5	Z5	X6	Y6	Z6	X7	Y7	Z7	X8	Y8	Z8	X9	Y9	Z9	X10	Y10	Z10	X11	Y11	Z11	X12	Y12	Z12	X13	Y13	Z13	X14	Y14	Z14	X15	Y15	Z15	X16	Y16	Z16	X17	Y17	Z17	X18	Y18	Z18	X19	Y19	Z19	X20	Y20	Z20	X21	Y21	Z21	X22	Y22	Z22	X23	Y23	Z23	X24	Y24	Z24	X25	Y25	Z25	X26	Y26	Z26	X27	Y27	Z27	X28	Y28	Z28	X29	Y29	Z29	X30	Y30	Z30	X31	Y31	Z31	X32	Y32	Z32	X33	Y33	Z33	X34	Y34	Z34	X35	Y35	Z35	X36	Y36	Z36	X37	Y37	Z37	X38	Y38	Z38	X39	Y39	Z39	X40	Y40	Z40	X41	Y41	Z41	X42	Y42	Z42	X43	Y43	Z43	X44	Y44	Z44	X45	Y45	Z45	X46	Y46	Z46	X47	Y47	Z47	X48	Y48	Z48	X49	Y49	Z49	X50	Y50	Z50	
1501	7.5050	523.053750	1333.217401	-60.320911	551.611328	1333.895244	-391.177446	518.968460	1406.266111	-221.147166	469.162352	1251.266791	-226.271131	546.440738	1104.748016	71.420545	747.954239	926.633042	-57.644423	519.677650	1094.457654	-541.990774	713.708257	936.159586	-430.186569	-36.253361	1199.959406	-257.707767	124.018825	1201.662858	-409.564016	108.304445	1217.585898	-87.611643	148.368049	1151.950283	-369.641836	141.304282	1163.356724	-124.051229	-10.030019	1243.158247	-207.908619	-4.401028	1240.941474	-304.228431	62.296826	1112.427485	-53.987263	70.619124	1069.267496	-429.664405	204.258465	1009.210018	-56.107747	286.086310	975.660279	-63.484047	338.010985	905.881506	-69.667944	306.856003	1003.039429	-79.139443	411.519185	820.778929	-92.919953	387.365571	806.569158	-199.430278	303.953811	750.572830	-55.269759	255.933188	675.504039	-70.142968	179.889919	635.562974	-69.338357	278.304476	656.034268	-97.826117	86.243392	559.503605	-69.820721	113.823504	562.904662	-156.213353	4.695088	576.084405	-112.777185	245.055316	397.049203	-102.705156	152.787167	425.688877	-38.353624	147.579387	951.123814	-433.635421	212.065572	892.624560	-425.774022	241.470730	912.331194	-415.151731	238.572612	808.074810	-420.740399	289.688662	692.397790	-399.212920	281.254463	664.770904	-292.936717	248.557581	270.229321	-401.617569	284.772272	304.383540	-329.206192	186.842589	236.943917	-362.549776	400.018363	206.985199	-419.206581	271.433248	561.181180	-423.549922	286.283308	477.951322	-407.566503	259.724598	393.592425	-408.302412	306.523942	480.282087	-373.347365	476.064171	249.092867	-349.867714	-199.055485	921.830384	-226.719795	-7.224000	83.054569	-427.549875	-10.462552	80.942532	-29.340478	
1502	7.5100	522.802003	1332.511807	-57.857348	552.481714	1334.182357	-387.523761	518.817583	1405.972086	-217.889020	469.963746	1250.697454	-223.833146	545.608391	1103.763739	73.821041	747.452413	926.464733	-57.440717	521.213471	1096.760079	-541.317306	713.698747	936.115982	-430.473079	-35.708601	1200.121813	-260.601568	125.739844	1200.586716	-410.243385	105.995215	1218.686615	-88.936741	148.847902	1150.581099	-370.739331	139.660594	1164.760187	-124.929487	-10.773085	1244.072730	-210.551047	-3.737818	1241.124295	-306.939979	61.032516	1115.084757	-54.936330	69.572122	1068.293958	-430.513950	205.067893	1014.796297	-56.215914	287.413555	982.781409	-63.568098	340.836627	913.933390	-69.268503	307.586631	1010.480334	-79.661517	415.727855	829.469574	-92.514656	392.504896	815.048157	-199.071819	308.911347	759.343219	-55.134602	261.070781	684.246875	-69.859050	185.190860	644.215449	-68.800351	283.362283	664.442748	-97.410336	91.845382	567.237329	-70.029889	118.904548	570.713317	-155.988139	10.175780	582.869490	-112.677688	252.709932	406.570126	-103.341792	159.880947	434.219918	-38.461306	143.539251	948.537534	-435.114454	206.662396	888.526107	-427.595099	236.488373	907.407393	-416.990662	231.006437	803.217819	-422.734769	279.535675	684.672702	-398.886242	270.948787	659.200652	-295.079758	241.697607	264.152617	-401.993321	278.727881	298.584296	-330.016053	180.516335	231.989377	-362.636421	393.176788	198.619295	-419.177962	261.359462	555.156642	-425.505759	277.270016	472.142777	-409.517984	251.452082	387.701824	-410.034533	297.860921	474.744620	-375.374196	469.856701	239.652945	-349.874421	-199.082920	921.832951	-226.699752	-7.243181	83.048936	-427.550813	-10.478699	80.924834	-29.339137	
1503	7.5150	522.916036	1332.111124	-54.962530	553.857596	1335.294101	-386.519420	518.574264	1405.655000	-214.709099	471.814660	1249.751753	-221.073658	544.702390	1102.623479	76.284112	747.001833	926.304507	-57.187738	522.823663	1099.053102	-540.693139	713.738226	936.053411	-430.707820	-35.822935	1200.413072	-262.640103	127.461380	1199.402203	-410.705869	103.895111	1219.459244	-90.244588	149.340009	1149.040598	-371.763216	138.054024	1165.916663	-125.797911	-13.186360	1244.662189	-213.462417	-3.468695	1241.658369	-309.536655	59.840028	1117.723146	-55.729065	68.450167	1067.314053	-431.351262	205.378339	1019.979196	-56.597483	288.962748	989.878333	-63.477208	343.323614	922.158630	-68.670385	308.140322	1018.080184	-79.439793	420.150838	838.534515	-91.205332	397.482717	823.472996	-198.364737	314.014845	768.048445	-54.656782	266.309260	692.505604	-69.459596	190.579773	652.295469	-68.777964	289.015638	672.843007	-96.695182	97.764108	574.264085	-70.119205	124.573999	578.341690	-155.740545	15.743786	589.000778	-112.702025	260.109074	415.762096	-103.839179	167.364929	442.223913	-38.541759	139.310287	946.212085	-437.126696	201.217289	884.711557	-429.689302	231.365625	902.758009	-418.996320	223.528908	798.831600	-425.148489	269.644016	678.801015	-400.577898	261.173325	653.892078	-297.481607	234.534414	258.521486	-402.345650	272.033529	293.228983	-330.764594	173.716674	227.563669	-362.748623	385.820303	190.729624	-419.162185	251.190272	549.460761	-427.505871	268.079135	466.748035	-411.502552	242.916716	381.991692	-411.514341	288.989002	469.469898	-377.533920	463.127333	230.742264	-349.906661	-199.136632	921.850777	-226.662464	-7.258856	83.067306	-427.554685	-10.510865	81.112936	-29.197108	
1504	7.5200	522.682235	1331.515833	-52.483655	554.242668	1335.251393	-382.920381	518.310537	1405.199488	-211.516217	472.291469	1249.095418	-218.379500	543.630179	1101.603068	78.332343	746.553637	926.165955	-56.976250	524.521456	1101.291407	-540.077699	713.830690	935.980491	-430.933882	-35.906209	1200.619715	-264.509805	129.162805	1198.137243	-411.043253	101.707987	1220.348466	-91.455465	149.790454	1147.559569	-372.654781	136.593750	1167.045091	-126.383433	-7.089434	1243.828097	-217.816791	-3.474828	1241.746151	-311.750768	58.741686	1120.327407	-56.366144	67.184100	1066.333522	-432.151260	205.755106	1025.398422	-57.155328	289.906504	996.860172	-63.214918	345.816940	930.189159	-68.580973	308.655740	1025.311037	-79.483964	424.512853	847.729160	-90.348108	402.231473	831.590094	-197.354843	318.990183	776.402940	-54.235474	271.679316	700.584031	-68.926651	196.103683	659.928399	-68.494800	294.654805	680.906424	-95.751786	103.935020	580.695491	-70.164182	130.821273	585.211851	-155.711713	21.593139	594.364318	-112.728842	268.543288	424.627337	-103.994124	175.864235	449.990199	-38.465951	135.310623	944.126379	-438.929523	195.793628	881.177032	-432.056337	226.334066	898.513669	-421.261624	216.035893	794.707907	-427.932882	259.715936	673.702866	-402.878992	251.692627	649.078930	-299.763590	226.965430	253.355627	-402.737333	265.104753	288.212313	-331.619151	166.458513	223.609299	-362.886648	378.041780	183.263585	-419.169291	240.968629	544.311406	-429.636736	258.696434	461.718850	-413.522957	234.056159	376.748397	-412.936344	280.058266	464.507411	-379.646946	455.954177	222.386216	-349.947742	-199.164093	921.854991	-226.643024	-7.262382	83.064101	-427.555583	-10.504484	81.090407	-29.225393	
